<svg xmlns="http://www.w3.org/2000/svg" viewBox="0 0 500 280">
  <style>
    text { font-family: 'Helvetica Neue', Arial, sans-serif; }
    .iter-label { font-size: 14px; font-weight: bold; fill: #333; }
    .label { font-size: 12px; fill: #666; }
    .node { fill: #4A90D9; }
    .node-light { fill: #7AB8F5; }
    .node-lighter { fill: #A8D1FF; }
    .edge { stroke: #666; stroke-width: 1.5; fill: none; }
  </style>
  
  <!-- Iteration 0 -->
  <text x="50" y="25" class="iter-label" text-anchor="middle">i=0</text>
  <circle cx="50" cy="70" r="18" class="node"/>
  <text x="50" y="76" fill="white" text-anchor="middle" font-size="13" font-weight="bold">n</text>
  
  <!-- Iteration 1 -->
  <text x="150" y="25" class="iter-label" text-anchor="middle">i=1</text>
  <circle cx="150" cy="70" r="18" class="node"/>
  <text x="150" y="76" fill="white" text-anchor="middle" font-size="13">+</text>
  <path d="M136 84 Q115 110 100 130" class="edge"/>
  <path d="M164 84 Q185 110 200 130" class="edge"/>
  <circle cx="100" cy="150" r="14" class="node-light"/>
  <text x="100" y="155" fill="white" text-anchor="middle" font-size="11">n</text>
  <circle cx="200" cy="150" r="14" class="node-light"/>
  <text x="200" y="155" fill="white" text-anchor="middle" font-size="11">1</text>
  
  <!-- Iteration 2 -->
  <text x="300" y="25" class="iter-label" text-anchor="middle">i=2</text>
  <circle cx="300" cy="60" r="18" class="node"/>
  <text x="300" y="66" fill="white" text-anchor="middle" font-size="13">+</text>
  <path d="M286 73 Q260 95 240 115" class="edge"/>
  <path d="M314 73 Q340 95 360 115" class="edge"/>
  
  <circle cx="240" cy="130" r="14" class="node-light"/>
  <text x="240" y="135" fill="white" text-anchor="middle" font-size="11">+</text>
  <path d="M228 142 Q212 160 200 175" class="edge"/>
  <path d="M252 142 Q268 160 280 175" class="edge"/>
  
  <circle cx="360" cy="130" r="14" class="node-light"/>
  <text x="360" y="135" fill="white" text-anchor="middle" font-size="11">1</text>
  
  <circle cx="200" cy="192" r="11" class="node-lighter"/>
  <text x="200" y="196" fill="#333" text-anchor="middle" font-size="9">n</text>
  <circle cx="280" cy="192" r="11" class="node-lighter"/>
  <text x="280" y="196" fill="#333" text-anchor="middle" font-size="9">1</text>
  
  <!-- Iteration 4 indicator -->
  <text x="455" y="25" class="iter-label" text-anchor="middle">i=4</text>
  <text x="455" y="75" fill="#999" font-size="32">💥</text>
</svg>
